<svg width="32" height="32" viewBox="0 0 32 32" fill="none" xmlns="http://www.w3.org/2000/svg">
<g clip-path="url(#clip0_104_2)">
<mask id="mask0_104_2" style="mask-type:luminance" maskUnits="userSpaceOnUse" x="0" y="0" width="32" height="32">
<path d="M32 0H0V32H32V0Z" fill="white"/>
</mask>
<g mask="url(#mask0_104_2)">
<path d="M26 9H7V23H26V9Z" fill="#CD001C"/>
<path d="M14.0294 0.0937881C11.2107 0.475039 8.77943 1.46879 6.49818 3.17504C5.72318 3.75629 4.29818 5.13754 3.73568 5.84379C1.89818 8.18129 0.854433 10.6187 0.391933 13.625C0.260683 14.5 0.248183 16.5875 0.366933 17.5625C0.691933 20.2125 1.74818 22.8937 3.27318 24.9562C3.46693 25.2187 3.62318 25.4625 3.62318 25.5C3.62318 25.5375 3.10443 26.7875 2.46693 28.275C1.82943 29.7562 1.31068 31.0562 1.31068 31.15C1.31068 31.4125 1.49818 31.75 1.71068 31.8812C1.82943 31.95 2.02318 32 2.19818 32C2.35443 32 4.34193 31.675 6.60443 31.275L10.7169 30.55L11.4669 30.775C13.2232 31.2937 14.5482 31.4687 16.4044 31.4187C17.7669 31.3812 18.5544 31.2812 19.7357 30.9937C25.3919 29.6125 29.8857 25.1312 31.2732 19.4812C33.0607 12.2 29.5669 4.75629 22.8419 1.52504C21.4357 0.850039 20.0044 0.400039 18.4982 0.156289C17.6107 0.0125381 14.9044 -0.0249619 14.0294 0.0937881ZM15.6857 12.7062C15.9107 12.8187 16.1232 13.1687 16.1232 13.4312C16.1232 13.5562 16.0669 13.75 15.9982 13.8625C15.7669 14.2437 15.6982 14.25 12.9919 14.25C10.2794 14.25 10.2482 14.2437 9.99818 13.8437C9.76693 13.4687 9.88568 12.9812 10.2669 12.75C10.4544 12.6312 10.5982 12.625 12.9982 12.625C14.8982 12.625 15.5669 12.6437 15.6857 12.7062ZM21.6732 16.9937C22.1544 17.2375 22.2732 17.825 21.9294 18.2187C21.8169 18.3437 21.6357 18.4625 21.4982 18.5C21.3357 18.5437 19.4357 18.5625 15.8607 18.55C10.7794 18.5312 10.4482 18.525 10.2919 18.4187C10.0107 18.2312 9.86068 17.9437 9.89193 17.6375C9.92318 17.35 10.0419 17.175 10.3419 16.9937C10.5232 16.8812 10.7857 16.875 15.9857 16.875C21.2294 16.875 21.4482 16.8812 21.6732 16.9937Z" fill="#FFEE00"/>
</g>
</g>
<defs>
<clipPath id="clip0_104_2">
<rect width="32" height="32" fill="white"/>
</clipPath>
</defs>
</svg>
