<svg width="32" height="32" viewBox="0 0 32 32" fill="none" xmlns="http://www.w3.org/2000/svg">
<path d="M15.3754 0.125049C14.7879 0.437549 14.6254 0.825049 14.6254 1.9438V2.7438L14.3941 2.7813C10.8816 3.37505 7.95039 6.03755 6.96914 9.52505C6.70039 10.4625 6.67539 10.7688 6.62539 13.9062C6.58164 16.8876 6.57539 16.9875 6.41914 17.625C5.95039 19.5562 5.02539 21.125 3.60039 22.4C2.82539 23.1 2.51289 23.8937 2.68789 24.7687C2.83789 25.5437 3.28789 26.1187 4.00039 26.4625L4.40664 26.6562H16.0004H27.5941L28.0004 26.4625C29.2004 25.8875 29.6879 24.5188 29.1254 23.3251C28.9879 23.0251 28.7691 22.7625 28.1441 22.1437C26.7566 20.7687 26.0316 19.4812 25.5816 17.625C25.4254 16.9875 25.4191 16.8876 25.3754 13.9062C25.3254 10.7688 25.3004 10.4625 25.0316 9.52505C24.3504 7.1063 22.7004 5.0188 20.5379 3.8188C19.6629 3.33755 18.5691 2.95005 17.6129 2.78755L17.3754 2.7438V1.9563C17.3754 1.52505 17.3441 1.06255 17.3066 0.931299C17.2129 0.618799 16.9191 0.275049 16.6191 0.125049C16.3004 -0.0374513 15.6816 -0.0374513 15.3754 0.125049Z" fill="#FFEE00"/>
<path d="M6.51216 1.13119C6.01841 1.37494 4.55591 3.13744 3.73716 4.47494C2.28091 6.84369 1.44341 9.60619 1.33091 12.4125C1.28091 13.675 1.39341 14.0125 1.98091 14.3562C2.49966 14.6562 3.26841 14.55 3.66216 14.1125C3.95591 13.8 4.00591 13.5937 4.06216 12.5375C4.09341 11.9812 4.16216 11.2562 4.21841 10.9312C4.69341 8.16869 5.86216 5.76869 7.74341 3.71869C8.42466 2.98119 8.51841 2.78744 8.48716 2.24369C8.46216 1.72494 8.24341 1.36869 7.81841 1.14369C7.44966 0.94994 6.88716 0.94369 6.51216 1.13119Z" fill="#FFEE00"/>
<path d="M24.1817 1.14369C23.7567 1.36869 23.538 1.72494 23.513 2.24369C23.4817 2.78744 23.5755 2.98119 24.2567 3.71869C26.138 5.76869 27.3067 8.16869 27.7817 10.9312C27.838 11.2562 27.9067 11.9812 27.938 12.5375C27.9942 13.5937 28.0442 13.8 28.338 14.1125C28.7317 14.55 29.5005 14.6562 30.0192 14.3562C30.6067 14.0062 30.7192 13.675 30.6692 12.4062C30.5505 9.58744 29.7192 6.84369 28.263 4.47494C27.438 3.12494 25.9755 1.36869 25.4817 1.13119C25.1005 0.94369 24.5505 0.94994 24.1817 1.14369Z" fill="#FFEE00"/>
<path d="M11.0625 28.025C11.0625 28.1312 11.3563 28.9687 11.4875 29.2187C11.9688 30.175 12.7875 31.0062 13.7 31.4625C14.5 31.8625 15.0875 32 16 32C16.9125 32 17.5 31.8625 18.3 31.4625C19.2125 31.0062 20.0313 30.175 20.5125 29.2187C20.6438 28.9687 20.9375 28.1312 20.9375 28.025C20.9375 28.0125 18.7188 28 16 28C13.2875 28 11.0625 28.0125 11.0625 28.025Z" fill="#FFEE00"/>
<path d="M24 11C25.6569 11 27 9.65685 27 8C27 6.34315 25.6569 5 24 5C22.3431 5 21 6.34315 21 8C21 9.65685 22.3431 11 24 11Z" fill="#CD001C"/>
</svg>
