<svg xmlns="http://www.w3.org/2000/svg" width="34" height="34" viewBox="207 271.95 34 34"><g data-name="Group 541"><g data-name="Ellipse 19"><path d="M207 288.9a17 17 0 1 1 0 .1z" fill="#4169E1" fill-rule="evenodd"/><path d="M207.5 288.901a16.5 16.5 0 1 1 0 .098z" stroke-linejoin="round" stroke-linecap="round" stroke="#fff" fill="transparent" stroke-width=".97059"/></g><g data-name="Group 537"><g data-name="Group 536" transform="translate(215 280)" clip-path="url(&quot;#a&quot;)"><path d="M10.39.489a.539.539 0 0 0-.604.068l-5.558 4.77H1.57A1.188 1.188 0 0 0 .428 6.552v4.897c-.02.653.49 1.2 1.143 1.224h2.657l5.556 4.765a.553.553 0 0 0 .606.068.62.62 0 0 0 .324-.547V1.04A.62.62 0 0 0 10.39.49m-6.533 10.96H1.571V6.552h2.286v4.897Zm5.714 4.235L5 11.767V6.238l4.57-3.922v13.368Z" fill="#fff" fill-rule="evenodd" data-name="Path 749"/><path d="M13.608 4.66v.01a.544.544 0 0 0-.807 0 .643.643 0 0 0 0 .865 5.143 5.143 0 0 1 0 6.918.643.643 0 0 0 0 .866.545.545 0 0 0 .807 0 6.429 6.429 0 0 0 0-8.658" fill="#fff" fill-rule="evenodd" data-name="Path 750"/><path d="M15.219 2.946a.545.545 0 0 0-.807 0 .643.643 0 0 0 0 .865 7.683 7.683 0 0 1 0 10.37.643.643 0 0 0 0 .866.545.545 0 0 0 .807 0 8.97 8.97 0 0 0 0-12.11v.009Z" fill="#fff" fill-rule="evenodd" data-name="Path 751"/></g></g></g><defs><clipPath id="a"><path d="M0 0h18v18H0V0z" data-name="Rectangle 282"/></clipPath></defs></svg>